<svg width="11" height="12" viewBox="0 0 11 12" fill="none" xmlns="http://www.w3.org/2000/svg">
<path d="M0.112753 1.03598L0.16142 0.979982C0.246079 0.895304 0.358315 0.843819 0.477721 0.834888C0.597127 0.825957 0.715773 0.860173 0.812087 0.931315L0.868087 0.979982L5.18142 5.29265L9.49475 0.979315C9.5409 0.931583 9.59609 0.893518 9.6571 0.867343C9.71812 0.841167 9.78373 0.827406 9.85012 0.82686C9.91651 0.826315 9.98235 0.838997 10.0438 0.864166C10.1052 0.889336 10.161 0.926488 10.208 0.973457C10.2549 1.02043 10.292 1.07627 10.3171 1.13773C10.3422 1.19919 10.3548 1.26503 10.3542 1.33142C10.3536 1.39781 10.3398 1.46341 10.3135 1.5244C10.2873 1.58539 10.2492 1.64055 10.2014 1.68665L5.88875 5.99998L10.2021 10.3133C10.2867 10.3981 10.338 10.5103 10.3468 10.6297C10.3556 10.7491 10.3213 10.8677 10.2501 10.964L10.2014 11.02C10.1168 11.1047 10.0045 11.1561 9.88512 11.1651C9.76571 11.174 9.64707 11.1398 9.55075 11.0686L9.49475 11.02L5.18142 6.70732L0.868087 11.0206C0.773743 11.1117 0.647418 11.162 0.516319 11.1608C0.385221 11.1596 0.259839 11.107 0.167178 11.0142C0.0745176 10.9215 0.0219922 10.7961 0.0209152 10.665C0.0198382 10.5339 0.0702956 10.4076 0.16142 10.3133L4.47409 5.99998L0.160753 1.68665C0.0761747 1.60191 0.0248126 1.48963 0.0160041 1.37022C0.00719563 1.25082 0.0415257 1.13222 0.112753 1.03598L0.16142 0.979982L0.112753 1.03598Z" fill="#1E1E1E"/>
</svg>
