<svg width="20" height="20" viewBox="0 0 20 20" fill="none" xmlns="http://www.w3.org/2000/svg">
<path d="M14.7917 2.5C15.51 2.5 16.1988 2.78534 16.7067 3.29325C17.2147 3.80116 17.5 4.49004 17.5 5.20833V14.7917C17.5 15.51 17.2147 16.1988 16.7067 16.7067C16.1988 17.2147 15.51 17.5 14.7917 17.5H5.20833C4.49004 17.5 3.80116 17.2147 3.29325 16.7067C2.78534 16.1988 2.5 15.51 2.5 14.7917V5.20833C2.5 4.49004 2.78534 3.80116 3.29325 3.29325C3.80116 2.78534 4.49004 2.5 5.20833 2.5H14.7917ZM16.25 7.08333H3.75V14.7917C3.75 15.5967 4.40333 16.25 5.20833 16.25H14.7917C15.1784 16.25 15.5494 16.0964 15.8229 15.8229C16.0964 15.5494 16.25 15.1784 16.25 14.7917V7.08333ZM6.45833 12.0833C6.7346 12.0833 6.99955 12.1931 7.1949 12.3884C7.39025 12.5838 7.5 12.8487 7.5 13.125C7.5 13.4013 7.39025 13.6662 7.1949 13.8616C6.99955 14.0569 6.7346 14.1667 6.45833 14.1667C6.18207 14.1667 5.91711 14.0569 5.72176 13.8616C5.52641 13.6662 5.41667 13.4013 5.41667 13.125C5.41667 12.8487 5.52641 12.5838 5.72176 12.3884C5.91711 12.1931 6.18207 12.0833 6.45833 12.0833ZM10 12.0833C10.2763 12.0833 10.5412 12.1931 10.7366 12.3884C10.9319 12.5838 11.0417 12.8487 11.0417 13.125C11.0417 13.4013 10.9319 13.6662 10.7366 13.8616C10.5412 14.0569 10.2763 14.1667 10 14.1667C9.72373 14.1667 9.45878 14.0569 9.26343 13.8616C9.06808 13.6662 8.95833 13.4013 8.95833 13.125C8.95833 12.8487 9.06808 12.5838 9.26343 12.3884C9.45878 12.1931 9.72373 12.0833 10 12.0833ZM6.45833 8.75C6.7346 8.75 6.99955 8.85975 7.1949 9.0551C7.39025 9.25045 7.5 9.5154 7.5 9.79167C7.5 10.0679 7.39025 10.3329 7.1949 10.5282C6.99955 10.7236 6.7346 10.8333 6.45833 10.8333C6.18207 10.8333 5.91711 10.7236 5.72176 10.5282C5.52641 10.3329 5.41667 10.0679 5.41667 9.79167C5.41667 9.5154 5.52641 9.25045 5.72176 9.0551C5.91711 8.85975 6.18207 8.75 6.45833 8.75ZM10 8.75C10.2763 8.75 10.5412 8.85975 10.7366 9.0551C10.9319 9.25045 11.0417 9.5154 11.0417 9.79167C11.0417 10.0679 10.9319 10.3329 10.7366 10.5282C10.5412 10.7236 10.2763 10.8333 10 10.8333C9.72373 10.8333 9.45878 10.7236 9.26343 10.5282C9.06808 10.3329 8.95833 10.0679 8.95833 9.79167C8.95833 9.5154 9.06808 9.25045 9.26343 9.0551C9.45878 8.85975 9.72373 8.75 10 8.75ZM13.5417 8.75C13.8179 8.75 14.0829 8.85975 14.2782 9.0551C14.4736 9.25045 14.5833 9.5154 14.5833 9.79167C14.5833 10.0679 14.4736 10.3329 14.2782 10.5282C14.0829 10.7236 13.8179 10.8333 13.5417 10.8333C13.2654 10.8333 13.0004 10.7236 12.8051 10.5282C12.6097 10.3329 12.5 10.0679 12.5 9.79167C12.5 9.5154 12.6097 9.25045 12.8051 9.0551C13.0004 8.85975 13.2654 8.75 13.5417 8.75ZM14.7917 3.75H5.20833C4.82156 3.75 4.45063 3.90365 4.17714 4.17714C3.90365 4.45063 3.75 4.82156 3.75 5.20833V5.83333H16.25V5.20833C16.25 4.82156 16.0964 4.45063 15.8229 4.17714C15.5494 3.90365 15.1784 3.75 14.7917 3.75Z" fill="#5F5C5C"/>
</svg>
