<svg width="565" height="500" viewBox="0 0 565 500" fill="none" xmlns="http://www.w3.org/2000/svg">
<path d="M564.837 147.023V489.161C564.837 495.145 560.518 500 555.187 500H61.5624C56.2354 500 51.9138 495.145 51.9138 489.161V147.023C51.9138 141.036 56.2354 136.185 61.5624 136.185H555.187C560.518 136.185 564.837 141.036 564.837 147.023Z" fill="#D1E9F8"/>
<path d="M564.837 145.834V171.667H51.9138V145.834C51.9138 140.5 56.235 136.185 61.5624 136.185H555.187C560.518 136.185 564.837 140.5 564.837 145.834Z" fill="#3CB89D"/>
<path d="M67.6041 153.926C67.6041 151.445 69.6153 149.433 72.096 149.433C74.5768 149.433 76.588 151.445 76.588 153.926C76.588 156.407 74.5768 158.415 72.096 158.415C69.6153 158.415 67.6041 156.407 67.6041 153.926Z" fill="#DFEBFD"/>
<path d="M85.3042 153.926C85.3042 151.445 87.3151 149.433 89.7961 149.433C92.2769 149.433 94.2881 151.445 94.2881 153.926C94.2881 156.407 92.2769 158.415 89.7961 158.415C87.3151 158.415 85.3042 156.407 85.3042 153.926Z" fill="#DFEBFD"/>
<path d="M103.451 153.926C103.451 151.445 105.462 149.433 107.943 149.433C110.424 149.433 112.435 151.445 112.435 153.926C112.435 156.407 110.424 158.415 107.943 158.415C105.462 158.415 103.451 156.407 103.451 153.926Z" fill="#DFEBFD"/>
<path d="M327.904 447.585H382.001V393.488H327.904V447.585Z" fill="#B4DCF2"/>
<path d="M331.968 441.407L347.945 412.596L359.696 428.623L365.563 422.21L377.995 441.407H331.968Z" fill="#246E5E"/>
<path d="M355.562 408.461C355.562 406.179 357.414 404.327 359.696 404.327C361.982 404.327 363.831 406.179 363.831 408.461C363.831 410.747 361.982 412.596 359.696 412.596C357.414 412.596 355.562 410.747 355.562 408.461Z" fill="#89B9CC"/>
<path d="M327.904 372.642H462.786V294.462H327.904V372.642Z" fill="#B4DCF2"/>
<path d="M380.124 313.523V353.577L410.563 333.55L380.124 313.523Z" fill="#246E5E"/>
<path d="M524.496 236.251C524.496 245.074 520.975 253.095 515.293 258.912C509.615 264.728 501.782 268.331 493.165 268.331H128.16C109.53 268.331 94.2881 253.897 94.2881 236.251C94.2881 227.432 98.0947 219.412 104.239 213.598C110.375 207.782 118.845 204.176 128.16 204.176H493.165C510.399 204.176 524.496 218.609 524.496 236.251Z" fill="#EBF3FA"/>
<path d="M524.496 236.251C524.496 245.074 520.975 253.095 515.293 258.912C509.615 264.728 501.782 268.331 493.166 268.331H427.116V204.176H493.166C510.399 204.176 524.496 218.609 524.496 236.251Z" fill="#482461"/>
<path d="M474.533 220.586C468.482 225.065 467.201 233.636 471.684 239.687C473.852 242.618 477.035 244.531 480.641 245.067C484.247 245.606 487.853 244.709 490.784 242.537C496.835 238.058 498.113 229.487 493.634 223.436C489.155 217.385 480.584 216.107 474.533 220.586ZM482.693 247.913C481.88 247.913 481.064 247.853 480.244 247.732C475.925 247.086 472.117 244.797 469.519 241.287C464.156 234.044 465.686 223.784 472.929 218.421C480.176 213.059 490.433 214.588 495.799 221.835C501.161 229.079 499.632 239.339 492.385 244.701C489.542 246.806 486.167 247.913 482.693 247.913Z" fill="white"/>
<path d="M453.47 254.844L451.866 252.68L469.799 239.406L471.403 241.571L453.47 254.844Z" fill="white"/>
<path d="M446.436 258.376C445.645 257.307 445.872 255.803 446.937 255.015L457.498 247.196C458.567 246.405 460.071 246.629 460.863 247.697C461.651 248.765 461.427 250.27 460.359 251.061L449.801 258.88C448.732 259.667 447.228 259.444 446.436 258.376Z" fill="white"/>
<path d="M202.249 192.045C201.557 192.833 201.472 193.717 201.813 194.657L201.816 194.672C202.448 196.414 204.531 198.359 206.948 200.304C207.257 200.552 207.534 200.779 207.772 200.989C207.835 201.046 207.899 201.099 207.956 201.156C208.006 201.198 208.052 201.244 208.098 201.283C210.355 203.363 209.503 203.842 213.556 208.062C218.177 212.871 221.357 212.959 222.262 212.523C223.029 212.15 221.474 209.599 219.749 206.731C219.668 206.593 219.586 206.454 219.501 206.312C219.27 205.933 219.043 205.546 218.816 205.162C216.797 201.713 217.315 200.094 217.797 194.959C218.188 190.789 224.296 171.657 224.296 171.657L215.437 170.127C215.437 170.127 212.765 185.363 209.826 187.709C208.254 188.958 206.497 188.972 204.986 189.902C204.879 189.966 204.776 190.03 204.673 190.097C203.814 190.668 202.938 191.254 202.249 192.045Z" fill="#FFB27D"/>
<path d="M202.249 192.045C201.557 192.833 201.472 193.717 201.813 194.657L201.816 194.672C202.59 196.411 204.62 198.348 206.955 200.286C207.264 200.538 207.53 200.772 207.772 200.989C207.835 201.046 207.899 201.099 207.956 201.156C208.006 201.198 208.052 201.244 208.098 201.283C210.355 203.363 209.503 203.842 213.556 208.062C218.177 212.871 221.357 212.959 222.262 212.523C223.029 212.15 221.474 209.599 219.749 206.731C218.851 206.401 214.674 204.701 211.516 200.659C208.836 197.238 207.016 192.872 205.192 190.196C204.993 190.157 204.872 190.136 204.673 190.097C203.814 190.668 202.938 191.254 202.249 192.045Z" fill="#233862"/>
<path d="M273.658 186.537C274.205 189.274 278.102 188.816 282.456 187.755C286.811 186.694 285.775 187.957 291.971 187.272C298.168 186.591 300.045 184.28 300.233 183.361C300.403 182.541 297.341 182.254 294.058 181.874C293.646 181.828 293.231 181.775 292.816 181.725C289.107 181.257 286.396 178.864 283.028 176.898C279.837 175.035 275.082 167.451 275.082 167.451L266.582 168.122C266.582 168.122 271.039 174.897 272.764 177.842C273.776 179.574 273.722 181.863 273.595 183.631C273.531 184.593 273.467 185.576 273.658 186.537Z" fill="#FFB27D"/>
<path d="M282.456 187.755C286.811 186.694 285.774 187.957 291.971 187.272C298.167 186.591 300.045 184.28 300.233 183.361C300.403 182.541 297.34 182.254 294.058 181.874L294.029 181.934C294.029 181.934 290.31 184.568 285.153 184.692C280.951 184.791 276.497 183.585 273.594 183.631C273.53 184.593 273.466 185.576 273.658 186.537C274.205 189.274 278.101 188.816 282.456 187.755Z" fill="#233862"/>
<path d="M241.114 132.196L233.165 153.567L222.784 181.473C222.784 181.473 219.97 181.743 217.276 180.965C214.795 180.249 211.949 178.371 211.949 178.371C211.949 178.371 214.838 148.407 220.218 131.205C221.595 126.79 223.139 123.22 224.842 121.212C233.172 111.374 241.114 132.196 241.114 132.196Z" fill="#0A1F40"/>
<path d="M233.051 98.2462C228.53 96.7875 216.733 98.2178 203.935 100.532C200.4 101.171 196.837 99.5522 194.974 96.4823L162.771 93.9555C162.771 93.9555 152.138 117.517 157.948 132.536C158.803 134.74 160.68 136.121 163.576 136.167C163.576 136.167 183.035 136.202 189.26 136.202C205.273 136.209 223.156 125.208 225.47 124.743C229.257 123.987 230.769 131.56 234.552 139.51C238.335 147.463 270.124 174.73 270.124 174.73C270.124 174.73 275.01 174.78 277.03 174.024C279.202 173.211 279.997 172.153 279.997 172.153C279.997 172.153 244.784 102.036 233.051 98.2462Z" fill="#307298"/>
<path d="M191.585 1.91299C189.196 0.486313 186.865 0.269783 185.434 0.308823C184.441 0.337212 183.447 0.273346 182.464 0.127838C170.174 -1.67859 162.767 16.1727 162.33 21.5671C161.532 31.4688 156.29 32.9771 148.915 39.1772C134.123 51.6092 138.457 66.0606 146.538 71.4337C151.389 74.6562 159.942 71.4373 159.942 71.4373C160.063 71.5225 183.33 58.441 194.8 52.1309C211.991 49.6928 198.491 6.02625 191.585 1.91299Z" fill="#482461"/>
<path d="M185.19 46.7542C185.243 46.7861 179.547 48.7274 175.742 47.0416C172.161 45.4552 169.45 39.5639 169.503 39.5604C171.132 39.4859 172.921 38.0627 174.301 28.7183L174.997 28.9667L186.659 33.1687C186.659 33.1687 185.811 36.9093 185.264 40.4725C184.803 43.4643 184.554 46.3283 185.19 46.7542Z" fill="#FFB27D"/>
<path d="M186.659 33.1686C186.659 33.1686 186.191 35.188 185.509 38.957C178.812 37.7504 175.938 32.5901 174.997 28.9667L186.659 33.1686Z" fill="#ED975D"/>
<path d="M188.394 36.8845C188.394 36.8845 172.434 34.7338 173.925 24.818C175.416 14.9022 174.362 7.94615 184.611 8.89727C194.864 9.85195 196.269 13.9297 196.578 17.3616C196.883 20.7934 192.582 37.1862 188.394 36.8845Z" fill="#FFB27D"/>
<path d="M195.996 11.9246C195.996 11.9246 185.779 20.726 178.83 21.4323C171.881 22.1385 169.251 19.9098 169.251 19.9098C169.251 19.9098 173.347 16.5098 175.813 11.0231C176.541 9.40834 178.078 8.29753 179.845 8.14492C184.806 7.71905 194.211 7.52385 195.996 11.9246Z" fill="#482461"/>
<path d="M189.612 11.1367C189.612 11.1367 193.029 14.4408 194.105 16.8931C195.141 19.2567 195.45 24.9138 194.623 27.1603C194.623 27.1603 199.95 16.808 196.937 11.7791C193.743 6.44142 189.612 11.1367 189.612 11.1367Z" fill="#3E2052"/>
<path d="M198.619 70.2661C198.126 102.565 198.477 95.8151 194.942 98.8815C194.09 99.6196 191.699 100.056 188.547 100.266C178.642 100.919 161.234 99.2789 160.57 97.4477C158.288 91.1163 159.903 89.1466 157.997 79.4509C157.802 78.4181 157.554 77.3037 157.266 76.0864C155.68 69.425 154.133 67.1608 159.776 56.4642C164.893 46.7719 170.206 38.9074 170.685 39.1913C184.171 47.2049 185.264 40.4761 185.264 40.4761C185.264 40.4761 198.86 54.5087 198.619 70.2661Z" fill="#AFCDFB"/>
<path d="M233.165 153.567L222.784 181.473C222.784 181.473 219.97 181.743 217.276 180.965C214.795 180.249 211.949 178.371 211.949 178.371C211.949 178.371 214.838 148.407 220.218 131.205L233.165 153.567Z" fill="#307298"/>
<path d="M185.264 40.4726C185.264 40.4726 199.144 42.829 200.77 48.8091C202.399 54.7855 207.754 91.0631 207.754 91.0631C207.754 91.0631 203.836 94.8853 200.578 91.6238C197.32 88.3623 190.332 57.6779 190.332 57.6779L185.264 40.4726Z" fill="#AFCDFB"/>
<path d="M188.547 100.266C178.642 100.919 161.234 99.2789 160.571 97.4477C158.289 91.1163 159.903 89.1466 157.998 79.4509L162.782 66.0003C162.782 66.0003 161.987 80.9804 166.402 84.9198C170.813 88.8627 184.487 92.5323 186.634 95.8258C187.671 97.4051 188.352 98.9915 188.547 100.266Z" fill="#95B3EF"/>
<path d="M177.201 93.959C177.201 93.959 186.975 91.787 188.551 92.653C190.126 93.5224 193.98 96.681 194.463 97.7812C194.942 98.8814 190.953 96.9472 189.654 96.5958C188.813 96.3723 186.599 97.1389 185.502 97.5044C180.888 99.0411 178.063 98.2497 178.063 98.2497L177.201 93.959Z" fill="#FFB27D"/>
<path d="M170.678 39.1842C170.678 39.1842 157.554 39.9898 153.011 46.3212C146.616 55.2397 133.918 93.2385 141.186 98.31C149.37 104.02 178.443 99.8183 178.443 99.8183C178.443 99.8183 179.412 95.2934 178.067 93.1072C176.722 90.9175 154.85 87.3792 153.838 86.3677C152.83 85.3598 166.466 66.6851 166.466 63.6579C166.469 60.6306 170.678 39.1842 170.678 39.1842Z" fill="#AFCDFB"/>
<path d="M189.023 95.3751C189.023 95.3751 191.07 98.0155 191.741 98.3313C192.412 98.6472 192.845 98.5691 192.845 98.5691L191.468 96.0848L189.023 95.3751Z" fill="#FFB27D"/>
<path d="M188.55 92.6529L194.502 95.5489C194.502 95.5489 194.25 95.9606 193.515 95.9286C192.784 95.8931 190.935 95.2188 190.935 95.2188L188.55 92.6529Z" fill="#FFB27D"/>
<path d="M239.382 99.467L177.201 99.4457V100.819L238.829 100.84L239.382 99.467Z" fill="#233862"/>
<path d="M191.741 100.823L238.829 100.84L253.007 65.6205L205.99 65.6063L191.741 100.823Z" fill="#233862"/>
<path d="M226.947 83.2234C227.302 81.9848 226.588 80.9804 225.35 80.9804C224.111 80.9804 222.819 81.9848 222.464 83.2234C222.109 84.462 222.823 85.4628 224.061 85.4663C225.3 85.4663 226.592 84.462 226.947 83.2234Z" fill="white"/>
<path d="M194.776 309.523H109.754C107.985 309.523 106.55 308.09 106.55 306.322V304.97C106.55 303.203 107.985 301.769 109.754 301.769H194.776C196.543 301.769 197.98 303.203 197.98 304.97V306.322C197.98 308.09 196.543 309.523 194.776 309.523Z" fill="#482461"/>
<path d="M151.148 336.197H109.196C107.735 336.197 106.55 335.012 106.55 333.55C106.55 332.088 107.735 330.902 109.196 330.902H151.148C152.607 330.902 153.792 332.088 153.792 333.55C153.792 335.012 152.607 336.197 151.148 336.197Z" fill="#89B9CC"/>
<path d="M183.27 325.096H109.013C107.653 325.096 106.55 323.992 106.55 322.633V322.264C106.55 320.905 107.653 319.801 109.013 319.801H183.27C184.629 319.801 185.733 320.905 185.733 322.264V322.633C185.733 323.992 184.629 325.096 183.27 325.096Z" fill="#89B9CC"/>
<path d="M264.509 325.096H195.329C194.012 325.096 192.948 324.032 192.948 322.715V322.183C192.948 320.869 194.012 319.801 195.329 319.801H264.509C265.822 319.801 266.887 320.869 266.887 322.183V322.715C266.887 324.032 265.822 325.096 264.509 325.096Z" fill="#89B9CC"/>
<path d="M203.47 336.197H161.522C160.059 336.197 158.874 335.012 158.874 333.55C158.874 332.088 160.059 330.902 161.522 330.902H203.47C204.933 330.902 206.118 332.088 206.118 333.55C206.118 335.012 204.933 336.197 203.47 336.197Z" fill="#89B9CC"/>
<path d="M298.306 309.523H213.283C211.512 309.523 210.078 308.09 210.078 306.322V304.97C210.078 303.203 211.512 301.769 213.283 301.769H298.306C300.073 301.769 301.507 303.203 301.507 304.97V306.322C301.507 308.09 300.073 309.523 298.306 309.523Z" fill="#482461"/>
<path d="M194.776 448.412H109.754C107.985 448.412 106.55 446.975 106.55 445.208V443.859C106.55 442.088 107.985 440.654 109.754 440.654H194.776C196.543 440.654 197.98 442.088 197.98 443.859V445.208C197.98 446.975 196.543 448.412 194.776 448.412Z" fill="#482461"/>
<path d="M151.148 475.083H109.197C107.735 475.083 106.55 473.897 106.55 472.439C106.55 470.977 107.735 469.791 109.197 469.791H151.148C152.607 469.791 153.792 470.977 153.792 472.439C153.792 473.897 152.607 475.083 151.148 475.083Z" fill="#89B9CC"/>
<path d="M183.27 463.982H109.013C107.653 463.982 106.55 462.878 106.55 461.519V461.153C106.55 459.79 107.653 458.69 109.013 458.69H183.27C184.629 458.69 185.733 459.79 185.733 461.153V461.519C185.733 462.878 184.629 463.982 183.27 463.982Z" fill="#89B9CC"/>
<path d="M264.509 463.982H195.329C194.012 463.982 192.948 462.917 192.948 461.6V461.068C192.948 459.755 194.012 458.69 195.329 458.69H264.509C265.822 458.69 266.887 459.755 266.887 461.068V461.6C266.887 462.917 265.822 463.982 264.509 463.982Z" fill="#89B9CC"/>
<path d="M203.47 475.083H161.522C160.059 475.083 158.874 473.897 158.874 472.439C158.874 470.977 160.059 469.791 161.522 469.791H203.47C204.933 469.791 206.118 470.977 206.118 472.439C206.118 473.897 204.933 475.083 203.47 475.083Z" fill="#89B9CC"/>
<path d="M298.306 448.412H213.283C211.512 448.412 210.078 446.975 210.078 445.208V443.859C210.078 442.088 211.512 440.654 213.283 440.654H298.306C300.073 440.654 301.507 442.088 301.507 443.859V445.208C301.507 446.975 300.073 448.412 298.306 448.412Z" fill="#482461"/>
<path d="M194.776 378.966H109.754C107.985 378.966 106.55 377.532 106.55 375.765V374.416C106.55 372.645 107.985 371.211 109.754 371.211H194.776C196.543 371.211 197.98 372.645 197.98 374.416V375.765C197.98 377.532 196.543 378.966 194.776 378.966Z" fill="#482461"/>
<path d="M151.148 405.64H109.197C107.735 405.64 106.55 404.455 106.55 402.993C106.55 401.534 107.735 400.349 109.197 400.349H151.148C152.607 400.349 153.792 401.534 153.792 402.993C153.792 404.455 152.607 405.64 151.148 405.64Z" fill="#89B9CC"/>
<path d="M183.27 394.539H109.013C107.653 394.539 106.55 393.435 106.55 392.076V391.707C106.55 390.348 107.653 389.244 109.013 389.244H183.27C184.629 389.244 185.733 390.348 185.733 391.707V392.076C185.733 393.435 184.629 394.539 183.27 394.539Z" fill="#89B9CC"/>
<path d="M264.509 394.539H195.329C194.012 394.539 192.948 393.474 192.948 392.158V391.625C192.948 390.312 194.012 389.244 195.329 389.244H264.509C265.822 389.244 266.887 390.312 266.887 391.625V392.158C266.887 393.474 265.822 394.539 264.509 394.539Z" fill="#89B9CC"/>
<path d="M203.47 405.64H161.522C160.059 405.64 158.874 404.455 158.874 402.993C158.874 401.534 160.059 400.349 161.522 400.349H203.47C204.933 400.349 206.118 401.534 206.118 402.993C206.118 404.455 204.933 405.64 203.47 405.64Z" fill="#89B9CC"/>
<path d="M298.306 378.97H213.283C211.512 378.97 210.078 377.532 210.078 375.765V374.416C210.078 372.645 211.512 371.212 213.283 371.212H298.306C300.073 371.212 301.507 372.645 301.507 374.416V375.765C301.507 377.532 300.073 378.97 298.306 378.97Z" fill="#482461"/>
<path d="M82.0905 378.888L12.848 444.083C11.4908 445.36 9.77951 445.765 9.04487 444.988L6.70753 442.503C5.97289 441.722 6.48252 440.04 7.83965 438.763L77.0822 373.568C78.4393 372.29 80.1506 371.886 80.8852 372.663L83.2226 375.147C83.9572 375.928 83.4476 377.61 82.0905 378.888Z" fill="#1F4D84"/>
<path d="M43.2332 415.474L12.848 444.083C11.4908 445.36 9.77951 445.765 9.04487 444.988L6.70753 442.503C5.97289 441.722 6.48252 440.04 7.83964 438.763L38.2245 410.154L43.2332 415.474Z" fill="#89B9CC"/>
<path d="M81.6873 304.186C93.6388 291.48 110.669 286.416 126.661 289.188C135.979 290.799 144.941 295.068 152.344 302.031C172.452 320.947 173.414 352.583 154.498 372.688C147.531 380.091 138.847 384.896 129.651 387.075C113.853 390.816 96.545 386.802 83.8401 374.846C63.733 355.93 62.7667 324.298 81.6873 304.186ZM66.1751 354.276C68.834 363.035 73.7561 371.24 80.9037 377.965C102.734 398.503 137.083 397.453 157.621 375.626C177.886 354.081 177.133 320.355 156.13 299.735C155.85 299.458 155.566 299.182 155.279 298.912C133.45 278.378 99.1053 279.417 78.5681 301.247C64.7523 315.933 60.7012 336.279 66.1751 354.276Z" fill="#1F4D84"/>
<path d="M118.078 388.424C117.359 388.424 116.641 388.41 115.922 388.378C106.567 387.977 97.2917 384.96 89.276 379.293C87.3886 377.958 85.5719 376.475 83.8403 374.846C63.7333 355.93 62.767 324.298 81.6876 304.186C82.3679 303.462 83.0649 302.763 83.7775 302.088C93.3587 293.028 105.714 288.453 118.096 288.453C120.961 288.453 123.827 288.698 126.66 289.188C135.454 290.71 143.933 294.596 151.077 300.878C151.407 301.169 151.737 301.467 152.06 301.769H109.754C107.984 301.769 106.55 303.203 106.55 304.97V306.322C106.55 308.09 107.984 309.523 109.754 309.523H158.881C161.177 312.76 163.048 316.213 164.489 319.801H109.013C107.653 319.801 106.55 320.905 106.55 322.264V322.633C106.55 323.992 107.653 325.096 109.013 325.096H166.274C166.799 327.009 167.214 328.947 167.509 330.902H161.522C160.059 330.902 158.874 332.088 158.874 333.55C158.874 335.012 160.059 336.197 161.522 336.197H168.027C168.584 348.597 164.545 361.193 155.836 371.212H109.754C107.984 371.212 106.55 372.645 106.55 374.416V375.765C106.55 377.532 107.984 378.966 109.754 378.966H147.361C141.953 382.884 135.919 385.588 129.651 387.075C125.853 387.973 121.965 388.424 118.078 388.424ZM109.196 330.902C107.735 330.902 106.55 332.088 106.55 333.55C106.55 335.012 107.735 336.197 109.196 336.197H151.148C152.607 336.197 153.792 335.012 153.792 333.55C153.792 332.088 152.607 330.902 151.148 330.902H109.196Z" fill="#B1C9FC"/>
<path d="M158.881 309.523H109.754C107.985 309.523 106.55 308.09 106.55 306.322V304.97C106.55 303.203 107.985 301.769 109.754 301.769H152.06C152.156 301.854 152.252 301.943 152.344 302.031C152.717 302.383 153.086 302.738 153.444 303.096C153.455 303.11 153.466 303.121 153.476 303.132C153.487 303.139 153.49 303.146 153.501 303.153C155.496 305.155 157.291 307.287 158.881 309.523Z" fill="#B38FCC" fill-opacity="0.81"/>
<path d="M151.148 336.197H109.196C107.735 336.197 106.55 335.012 106.55 333.55C106.55 332.088 107.735 330.902 109.196 330.902H151.148C152.607 330.902 153.792 332.088 153.792 333.55C153.792 335.012 152.607 336.197 151.148 336.197Z" fill="#93B5F5"/>
<path d="M166.274 325.096H109.013C107.653 325.096 106.55 323.992 106.55 322.633V322.264C106.55 320.905 107.653 319.801 109.013 319.801H164.489C165.184 321.537 165.777 323.304 166.274 325.096Z" fill="#93B5F5"/>
<path d="M168.027 336.197H161.522C160.059 336.197 158.874 335.012 158.874 333.55C158.874 332.088 160.059 330.902 161.522 330.902H167.509C167.704 332.187 167.849 333.479 167.945 334.771C167.977 335.246 168.006 335.722 168.027 336.197Z" fill="#93B5F5"/>
<path d="M147.361 378.966H109.754C107.985 378.966 106.55 377.532 106.55 375.765V374.416C106.55 372.645 107.985 371.211 109.754 371.211H155.836C155.4 371.708 154.956 372.205 154.498 372.688C152.28 375.044 149.888 377.138 147.361 378.966Z" fill="#B38FCC" fill-opacity="0.81"/>
<path d="M118.083 388.428C117.363 388.428 116.643 388.41 115.922 388.378C116.641 388.41 117.359 388.424 118.078 388.424C121.965 388.424 125.853 387.973 129.651 387.075C135.919 385.588 141.953 382.884 147.361 378.966C149.888 377.138 152.28 375.044 154.498 372.688C154.956 372.205 155.4 371.708 155.836 371.212C164.545 361.193 168.584 348.598 168.027 336.197C168.006 335.722 167.977 335.246 167.945 334.771C168.932 348.246 164.485 362.073 154.498 372.688C147.535 380.091 138.847 384.896 129.649 387.079C125.854 387.977 121.968 388.428 118.083 388.428ZM89.276 379.293C87.3887 377.958 85.5706 376.475 83.8387 374.846C63.7323 355.93 62.7677 324.294 81.6866 304.186C82.3673 303.462 83.065 302.763 83.7776 302.088C83.065 302.763 82.368 303.462 81.6877 304.186C62.767 324.298 63.7334 355.93 83.8404 374.846C85.572 376.475 87.3887 377.958 89.276 379.293ZM153.501 303.153C153.49 303.146 153.487 303.139 153.476 303.132C153.483 303.139 153.494 303.146 153.501 303.153ZM153.444 303.096C153.086 302.738 152.717 302.383 152.344 302.032C152.252 301.943 152.156 301.854 152.06 301.769C151.737 301.467 151.407 301.169 151.077 300.878C151.503 301.254 151.925 301.638 152.344 302.032C152.717 302.383 153.086 302.738 153.444 303.096Z" fill="#698EBF"/>
<path d="M518.818 276.784L499.408 281.299L489.812 298.763L482.483 258.965L518.818 276.784Z" fill="#233862"/>
<path d="M510.747 293.826L507.919 295.97L495.522 279.609L498.351 277.465L510.747 293.826Z" fill="#233862"/>
<path d="M454.822 460.724C454.822 460.724 462.847 451.301 455.27 445.36C455.27 445.36 449.74 442.035 445.24 442.319C445.24 442.319 451.65 452.994 449.591 454.066C447.529 455.134 443.302 441.655 443.302 441.655C443.302 441.655 430.739 440.477 426.704 442.432C426.704 442.432 437.471 451.188 435.211 451.716C432.95 452.245 421.324 443.657 421.324 443.657C421.324 443.657 409.637 445.683 410.283 452.816C410.929 459.946 414.964 462.136 416.735 461.941C418.506 461.746 428.851 457.757 429.082 459.208C429.309 460.656 423.091 465.419 418.726 465.653C418.726 465.653 426.999 474.717 432.467 472.077C437.936 469.436 438.391 465.277 441.801 463.705C445.212 462.136 448.126 462.129 446.72 463.726C445.318 465.32 439.143 466.885 437.198 470.348C435.257 473.809 433.514 476.144 439.179 475.271C444.843 474.401 454.042 470.224 454.432 465.476C454.822 460.724 454.822 460.724 454.822 460.724Z" fill="#006E99"/>
<path d="M416.029 452.99C416.029 452.99 447.781 451.663 454.823 460.724C454.823 460.724 456.388 465.366 461.172 469.578L461.924 471.605C461.924 471.605 456.402 465.82 454.432 465.476C454.432 465.476 457.477 454.215 416.029 452.99Z" fill="#233862"/>
<path d="M461.171 469.578C461.171 469.578 468.007 474.597 468.507 483.604L467.269 483.717C467.269 483.717 465.065 474.412 461.118 470.781C457.172 467.154 461.171 469.578 461.171 469.578Z" fill="#233862"/>
<path d="M497.399 435.874C497.399 435.874 484.563 428.74 490.511 418.984C490.511 418.984 495.277 412.99 500.395 411.436C500.395 411.436 497.708 425.965 500.444 426.299C503.177 426.629 502.272 409.892 502.272 409.892C502.272 409.892 515.744 403.358 521.043 403.855C521.043 403.855 512.717 418.058 515.449 417.71C518.182 417.359 527.53 402.978 527.53 402.978C527.53 402.978 541.357 400.373 543.603 408.564C545.85 416.759 542.276 420.869 540.228 421.387C538.181 421.909 525.028 421.777 525.376 423.484C525.72 425.191 534.614 427.896 539.561 426.345C539.561 426.345 534.138 439.856 526.962 439.196C519.786 438.535 517.55 434.099 513.107 433.773C508.664 433.446 505.424 434.653 507.649 435.842C509.874 437.027 517.387 436.2 520.982 439.238C524.581 442.276 527.491 444.146 520.833 445.534C514.175 446.922 502.215 446.105 499.806 440.991C497.399 435.874 497.399 435.874 497.399 435.874Z" fill="#006E99"/>
<path d="M537.294 411.148C537.294 411.148 501.456 422.877 497.4 435.874C497.4 435.874 497.588 441.68 494.021 448.352L494.032 450.914C494.032 450.914 497.762 442.191 499.806 440.991C499.806 440.991 491.743 429.741 537.294 411.148Z" fill="#233862"/>
<path d="M494.021 448.352C494.021 448.352 488.516 456.77 491.703 466.987L493.123 466.601C493.123 466.601 491.707 455.343 494.585 449.669C497.46 443.994 494.021 448.352 494.021 448.352Z" fill="#233862"/>
<path d="M476.986 426.043C476.986 426.043 493.843 416.532 485.922 403.724C485.922 403.724 479.591 395.859 472.83 393.858C472.83 393.858 476.493 412.983 472.894 413.444C469.292 413.909 470.346 391.838 470.346 391.838C470.346 391.838 452.53 383.338 445.553 384.034C445.553 384.034 456.647 402.687 453.041 402.251C449.435 401.811 436.993 382.937 436.993 382.937C436.993 382.937 418.744 379.615 415.851 390.433C412.955 401.25 417.704 406.641 420.408 407.308C423.112 407.975 440.449 407.695 440.006 409.949C439.562 412.202 427.865 415.84 421.327 413.835C421.327 413.835 428.589 431.601 438.043 430.671C447.497 429.738 450.408 423.875 456.26 423.406C462.112 422.938 466.396 424.499 463.475 426.086C460.554 427.672 450.642 426.643 445.925 430.678C441.209 434.713 437.39 437.201 446.177 438.976C454.964 440.75 470.722 439.572 473.856 432.807C476.986 426.043 476.986 426.043 476.986 426.043Z" fill="#006E99"/>
<path d="M424.191 393.787C424.191 393.787 471.528 408.948 476.986 426.043C476.986 426.043 476.784 433.698 481.539 442.468L481.55 445.843C481.55 445.843 476.56 434.376 473.856 432.807C473.856 432.807 484.389 417.912 424.191 393.787Z" fill="#233862"/>
<path d="M481.539 442.468C481.539 442.468 488.868 453.516 484.754 467.009L482.877 466.512C482.877 466.512 484.652 451.66 480.812 444.203C476.972 436.747 481.539 442.468 481.539 442.468Z" fill="#233862"/>
<path d="M344.425 96.5746L391.711 106.356L361.396 82.8011L359.355 89.6186L347.622 90.9956L344.425 96.5746Z" fill="#95B3EF"/>
<path d="M391.711 106.356L353.287 83.4079L314.493 79.025L391.711 106.356Z" fill="#F9DDBF"/>
<path d="M361.396 82.801L391.711 106.356L369.307 71.1001L361.396 82.801Z" fill="#F9DDBF"/>
<path d="M47.2857 229.65L0 239.435L30.3146 215.877L32.3567 222.694L44.0903 224.071L47.2857 229.65Z" fill="#95B3EF"/>
<path d="M0 239.435L38.4257 216.487L77.2167 212.101L0 239.435Z" fill="#F9DDBF"/>
<path d="M30.3146 215.877L0 239.435L22.4057 204.176L30.3146 215.877Z" fill="#F9DDBF"/>
<path d="M124.762 243.314L126.145 241.671C127.398 242.753 128.65 243.371 130.276 243.371C131.696 243.371 132.593 242.718 132.593 241.688C132.593 240.751 132.07 240.247 129.641 239.669C126.856 239.016 125.286 238.193 125.286 235.744C125.286 233.501 127.154 231.95 129.752 231.95C131.659 231.95 133.172 232.528 134.5 233.597L133.266 235.332C132.089 234.456 130.911 233.987 129.715 233.987C128.369 233.987 127.585 234.679 127.585 235.577C127.585 236.585 128.183 237.036 130.687 237.632C133.453 238.306 134.894 239.296 134.894 241.5C134.894 243.949 132.967 245.408 130.22 245.408C128.22 245.408 126.332 244.716 124.762 243.314Z" fill="#89B9CC"/>
<path d="M144.107 239.594C143.958 238.136 143.096 236.997 141.601 236.997C140.217 236.997 139.248 238.061 139.043 239.594H144.107ZM136.8 240.287C136.8 237.465 138.798 235.148 141.619 235.148C144.76 235.148 146.35 237.614 146.35 240.453C146.35 240.602 146.332 240.979 146.311 241.089H139.06C139.302 242.696 140.444 243.594 141.9 243.594C143.003 243.594 143.788 243.182 144.575 242.416L145.899 243.594C144.966 244.716 143.678 245.443 141.864 245.443C139.004 245.443 136.8 243.371 136.8 240.287Z" fill="#89B9CC"/>
<path d="M154.722 241.089C154.143 240.865 153.338 240.698 152.461 240.698C151.041 240.698 150.2 241.277 150.2 242.267C150.2 243.2 151.041 243.725 152.106 243.725C153.6 243.725 154.722 242.884 154.722 241.649V241.089ZM154.665 245.22V244.006C153.994 244.808 152.965 245.425 151.471 245.425C149.601 245.425 147.957 244.361 147.957 242.341C147.957 240.155 149.657 239.108 151.957 239.108C153.153 239.108 153.92 239.279 154.683 239.52V239.332C154.683 237.969 153.824 237.22 152.255 237.22C151.151 237.22 150.328 237.465 149.434 237.838L148.816 236.024C149.899 235.538 150.967 235.201 152.571 235.201C155.488 235.201 156.908 236.734 156.908 239.371V245.22H154.665Z" fill="#89B9CC"/>
<path d="M159.598 235.353H161.862V237.575C162.48 236.099 163.619 235.091 165.355 235.165V237.557H165.227C163.243 237.557 161.862 238.846 161.862 241.465V245.22H159.598V235.353Z" fill="#89B9CC"/>
<path d="M166.44 240.304C166.44 237.501 168.609 235.148 171.562 235.148C173.432 235.148 174.589 235.836 175.505 236.848L174.103 238.359C173.411 237.632 172.683 237.128 171.544 237.128C169.897 237.128 168.701 238.548 168.701 240.304C168.701 242.061 169.918 243.481 171.654 243.481C172.719 243.481 173.506 242.977 174.216 242.249L175.579 243.594C174.607 244.677 173.467 245.443 171.544 245.443C168.609 245.443 166.44 243.147 166.44 240.304Z" fill="#89B9CC"/>
<path d="M177.655 231.577H179.916V236.883C180.551 235.95 181.466 235.148 183 235.148C185.225 235.148 186.513 236.642 186.513 238.941V245.22H184.252V239.612C184.252 238.079 183.486 237.202 182.141 237.202C180.831 237.202 179.916 238.118 179.916 239.651V245.22H177.655V231.577Z" fill="#89B9CC"/>
<path d="M189.094 242.661H191.578V245.22H189.094V242.661Z" fill="#89B9CC"/>
<path d="M194.119 242.661H196.607V245.22H194.119V242.661Z" fill="#89B9CC"/>
<path d="M199.148 242.661H201.632V245.22H199.148V242.661Z" fill="#89B9CC"/>
<path d="M204.177 242.661H206.661V245.22H204.177V242.661Z" fill="#89B9CC"/>
<path d="M334.914 365.59C334.914 364.252 336 363.17 337.334 363.17C338.672 363.17 339.758 364.252 339.758 365.59C339.758 366.924 338.672 368.01 337.334 368.01C336 368.01 334.914 366.924 334.914 365.59Z" fill="#D7E5FF"/>
<path d="M447.476 366.239H337.987C337.629 366.239 337.334 365.948 337.334 365.59C337.334 365.228 337.629 364.937 337.987 364.937H447.476C447.835 364.937 448.126 365.228 448.126 365.59C448.126 365.948 447.835 366.239 447.476 366.239Z" fill="#D7E5FF"/>
</svg>
