<svg width="875" height="547" viewBox="0 0 875 547" fill="none" xmlns="http://www.w3.org/2000/svg">
<path d="M114.222 492.1C114.222 492.1 22.2579 381.294 67.2027 267.223C96.4988 192.867 206.393 152.123 268.412 192.867C294.826 210.22 379.572 193.452 424.821 121.609C512.75 -17.9991 819.626 66.7858 763.758 281.133C736.723 384.864 846.04 388.632 790.338 492.319L114.222 492.1" fill="#D1E9F8"/>
<path d="M182.296 309.736C182.296 309.736 173.021 298.914 181.724 292.038C181.724 292.038 188.081 288.19 193.264 288.501C193.264 288.501 185.919 300.82 188.296 302.045C190.672 303.27 195.49 287.73 195.49 287.73C195.49 287.73 209.957 286.327 214.61 288.564C214.61 288.564 202.243 298.687 204.848 299.288C207.453 299.893 220.811 289.956 220.811 289.956C220.811 289.956 234.275 292.248 233.557 300.464C232.839 308.678 228.2 311.216 226.161 310.997C224.121 310.778 212.194 306.224 211.934 307.895C211.674 309.566 218.854 315.028 223.882 315.283C223.882 315.283 214.389 325.755 208.08 322.733C201.772 319.711 201.233 314.922 197.301 313.125C193.368 311.328 190.011 311.33 191.634 313.163C193.258 314.995 200.376 316.776 202.624 320.755C204.873 324.735 206.891 327.418 200.364 326.436C193.837 325.454 183.227 320.676 182.761 315.206C182.296 309.736 182.296 309.736 182.296 309.736" fill="#006E99"/>
<path d="M226.941 300.686C226.941 300.686 190.372 299.275 182.296 309.736C182.296 309.736 180.509 315.086 175.013 319.959L174.157 322.295C174.157 322.295 180.494 315.611 182.761 315.206C182.761 315.206 179.215 302.248 226.941 300.686" fill="#233862"/>
<path d="M175.013 319.959C175.013 319.959 167.164 325.766 166.619 336.14L168.043 336.268C168.043 336.268 170.551 325.539 175.082 321.346C179.613 317.151 175.013 319.959 175.013 319.959Z" fill="#233862"/>
<path d="M149.867 296.124C149.867 296.124 164.621 287.861 157.736 276.645C157.736 276.645 152.228 269.759 146.326 267.989C146.326 267.989 149.474 284.714 146.326 285.107C143.179 285.501 144.163 266.217 144.163 266.217C144.163 266.217 128.621 258.739 122.523 259.33C122.523 259.33 132.162 275.661 129.015 275.267C125.867 274.876 115.048 258.345 115.048 258.345C115.048 258.345 99.1134 255.394 96.5562 264.841C93.9988 274.285 98.1299 279.006 100.49 279.596C102.851 280.187 117.999 279.99 117.605 281.959C117.212 283.926 106.982 287.074 101.277 285.304C101.277 285.304 107.572 300.847 115.835 300.06C124.097 299.275 126.654 294.157 131.769 293.764C136.884 293.37 140.622 294.748 138.064 296.124C135.507 297.502 126.851 296.578 122.72 300.09C118.589 303.601 115.245 305.768 122.917 307.34C130.589 308.916 144.359 307.931 147.113 302.029C149.867 296.124 149.867 296.124 149.867 296.124" fill="#006E99"/>
<path d="M103.835 267.792C103.835 267.792 145.146 281.172 149.867 296.124C149.867 296.124 149.671 302.816 153.802 310.488V313.442C153.802 313.442 149.474 303.404 147.113 302.029C147.113 302.029 156.359 289.043 103.835 267.792" fill="#233862"/>
<path d="M153.802 310.488C153.802 310.488 160.173 320.167 156.54 331.944L154.902 331.504C154.902 331.504 156.492 318.532 153.159 312.006C149.826 305.48 153.802 310.488 153.802 310.488Z" fill="#233862"/>
<path d="M173.34 284.727C173.34 284.727 153.891 273.834 162.967 259.051C162.967 259.051 170.228 249.971 178.008 247.638C178.008 247.638 173.858 269.685 178.008 270.202C182.156 270.721 180.86 245.302 180.86 245.302C180.86 245.302 201.346 235.448 209.385 236.225C209.385 236.225 196.678 257.752 200.827 257.235C204.976 256.715 219.238 234.928 219.238 234.928C219.238 234.928 240.243 231.036 243.614 243.489C246.985 255.939 241.539 262.163 238.427 262.94C235.316 263.72 215.349 263.46 215.867 266.053C216.386 268.648 229.87 272.797 237.39 270.461C237.39 270.461 229.092 290.952 218.201 289.915C207.31 288.879 203.939 282.134 197.197 281.615C190.454 281.098 185.527 282.911 188.899 284.727C192.27 286.543 203.68 285.323 209.125 289.954C214.571 294.584 218.979 297.437 208.866 299.513C198.752 301.588 180.601 300.289 176.97 292.508C173.34 284.727 173.34 284.727 173.34 284.727" fill="#006E99"/>
<path d="M234.019 247.378C234.019 247.378 179.563 265.016 173.34 284.727C173.34 284.727 173.599 293.548 168.153 303.662V307.553C168.153 307.553 173.858 294.324 176.97 292.508C176.97 292.508 164.783 275.39 234.019 247.378" fill="#233862"/>
<path d="M168.153 303.662C168.153 303.662 159.756 316.418 164.543 331.944L166.704 331.364C166.704 331.364 164.606 314.262 169 305.661C173.394 297.059 168.153 303.662 168.153 303.662Z" fill="#D4E4F8"/>
<path d="M172.685 365.618C193.725 365.618 210.781 348.557 210.781 327.511H134.588C134.588 348.557 151.644 365.618 172.685 365.618Z" fill="#3CB89D"/>
<path d="M211.307 367.557H134.062C134.062 364.958 136.166 362.855 138.762 362.855H206.607C209.203 362.855 211.307 364.958 211.307 367.557Z" fill="#F99746"/>
<path d="M211.647 328.679H133.335V327.511H211.647V328.679Z" fill="#9FC1F4"/>
<path d="M369.264 491.307L369.452 491.304C370.992 491.277 372.181 490.019 372.036 488.569L361.766 385.988L352.805 386.789L367.552 489.921C367.667 490.727 368.402 491.324 369.264 491.307" fill="#8CB4F4"/>
<path d="M270.382 491.307L270.194 491.304C268.654 491.277 267.466 490.019 267.61 488.569L277.881 385.988L286.841 386.789L272.095 489.921C271.98 490.727 271.243 491.324 270.382 491.307Z" fill="#8CB4F4"/>
<path d="M441.711 491.307L441.9 491.304C443.439 491.277 444.629 490.019 444.484 488.569L434.213 385.988L425.253 386.789L439.999 489.921C440.114 490.727 440.85 491.324 441.711 491.307" fill="#8CB4F4"/>
<path d="M273.44 371.068L255.212 281.029C252.872 268.84 262.971 257.692 276.084 257.993L311.24 258.794C323.367 259.073 333.911 267.19 337.282 278.847L363.951 371.068H273.44Z" fill="#8CB4F4"/>
<path d="M284.468 371.068L266.24 281.029C263.9 268.84 273.998 257.692 287.112 257.993L322.268 258.794C334.395 259.073 344.939 267.19 348.31 278.847L374.979 371.068H284.468Z" fill="#8CB4F4"/>
<path d="M278.521 387.489H417.607C420.402 387.489 422.688 385.203 422.688 382.408V376.15C422.688 373.355 420.402 371.068 417.607 371.068H273.44V382.408C273.44 385.203 275.726 387.489 278.521 387.489Z" fill="#8CB4F4"/>
<path d="M343.79 387.489H432.455C434.705 387.489 436.548 385.646 436.548 383.395V375.16C436.548 372.909 434.705 371.068 432.455 371.068H343.79C341.54 371.068 339.697 372.909 339.697 375.16V383.395C339.697 385.646 341.54 387.489 343.79 387.489Z" fill="#8CB4F4"/>
<path d="M231.94 369.895V372.966C231.94 374.041 231.592 374.919 231.167 374.919H119.097C118.672 374.919 118.324 374.041 118.324 372.966V369.895C118.324 368.82 118.672 367.942 119.097 367.942H231.167C231.592 367.942 231.94 368.82 231.94 369.895Z" fill="#9ABFE2"/>
<path d="M231.94 369.895V372.966C231.94 374.041 231.621 374.919 231.231 374.919H142.259C141.87 374.919 141.55 374.041 141.55 372.966V369.895C141.55 368.82 141.87 367.942 142.259 367.942H231.231C231.621 367.942 231.94 368.82 231.94 369.895" fill="#BAD4F4"/>
<path d="M203.575 490.913H124.012V374.922H203.575V490.913" fill="#C8DBF4"/>
<path d="M225.872 490.913H146.309V374.922H225.872V490.913Z" fill="#DFEBFD"/>
<path d="M151.352 483.742H220.831V378.964H151.352V483.742ZM221.598 484.511H150.585V378.199H221.598V484.511" fill="#B7D3F3"/>
<path d="M221.214 414.134H150.969V413.368H221.214V414.134" fill="#B7D3F3"/>
<path d="M221.214 449.987H150.969V449.221H221.214V449.987" fill="#B7D3F3"/>
<path d="M193.289 385.055H180.254C179.622 385.055 179.104 384.536 179.104 383.904C179.104 383.272 179.622 382.752 180.254 382.752H193.289C193.922 382.752 194.44 383.272 194.44 383.904C194.44 384.536 193.922 385.055 193.289 385.055Z" fill="#B7D3F3"/>
<path d="M193.289 420.115H180.254C179.622 420.115 179.104 419.598 179.104 418.966C179.104 418.332 179.622 417.815 180.254 417.815H193.289C193.922 417.815 194.44 418.332 194.44 418.966C194.44 419.598 193.922 420.115 193.289 420.115Z" fill="#B7D3F3"/>
<path d="M193.289 456.666H180.254C179.622 456.666 179.104 456.149 179.104 455.514C179.104 454.882 179.622 454.366 180.254 454.366H193.289C193.922 454.366 194.44 454.882 194.44 455.514C194.44 456.149 193.922 456.666 193.289 456.666Z" fill="#B7D3F3"/>
<path d="M544.28 166.365H493.85C491.534 166.365 489.639 164.469 489.639 162.153V113.467C489.639 111.153 491.534 109.258 493.85 109.258H544.28C546.596 109.258 548.491 111.153 548.491 113.467V162.153C548.491 164.469 546.596 166.365 544.28 166.365Z" fill="#C0D8FB"/>
<path d="M542.095 163.889H496.035C493.918 163.889 492.19 162.161 492.19 160.044V115.576C492.19 113.462 493.918 111.73 496.035 111.73H542.095C544.209 111.73 545.94 113.462 545.94 115.576V160.044C545.94 162.161 544.209 163.889 542.095 163.889Z" fill="#DFEBFD"/>
<path d="M517.847 116.943C517.847 116.27 518.391 115.723 519.064 115.723C519.739 115.723 520.283 116.27 520.283 116.943C520.283 117.616 519.739 118.163 519.064 118.163C518.391 118.163 517.847 117.616 517.847 116.943Z" fill="#B7D3F3"/>
<path d="M527.682 118.666C528.011 118.078 528.752 117.868 529.339 118.193C529.93 118.521 530.141 119.262 529.813 119.85C529.487 120.441 528.743 120.652 528.156 120.324C527.568 119.998 527.354 119.254 527.682 118.666Z" fill="#B7D3F3"/>
<path d="M536.11 125.364C536.676 124.998 537.43 125.162 537.794 125.728C538.161 126.294 537.996 127.049 537.43 127.413C536.867 127.779 536.113 127.615 535.746 127.049C535.382 126.483 535.544 125.728 536.11 125.364Z" fill="#B7D3F3"/>
<path d="M540.285 135.73C540.958 135.73 541.502 136.274 541.502 136.947C541.502 137.622 540.958 138.167 540.285 138.167C539.61 138.167 539.066 137.622 539.066 136.947C539.066 136.274 539.61 135.73 540.285 135.73Z" fill="#B7D3F3"/>
<path d="M538.152 147.758C538.628 148.234 538.628 149.006 538.152 149.481C537.677 149.957 536.905 149.957 536.43 149.481C535.954 149.006 535.954 148.234 536.43 147.758C536.905 147.282 537.677 147.282 538.152 147.758Z" fill="#B7D3F3"/>
<path d="M530.499 155.436C530.975 155.911 530.975 156.683 530.499 157.159C530.023 157.634 529.249 157.634 528.773 157.159C528.298 156.683 528.298 155.911 528.773 155.436C529.249 154.96 530.023 154.96 530.499 155.436Z" fill="#B7D3F3"/>
<path d="M517.847 159.39C517.847 158.717 518.391 158.173 519.064 158.173C519.739 158.173 520.283 158.717 520.283 159.39C520.283 160.066 519.739 160.61 519.064 160.61C518.391 160.61 517.847 160.066 517.847 159.39Z" fill="#B7D3F3"/>
<path d="M510.409 118.666C510.081 118.078 509.34 117.868 508.75 118.193C508.162 118.521 507.951 119.262 508.277 119.85C508.605 120.441 509.346 120.652 509.936 120.324C510.524 119.998 510.735 119.254 510.409 118.666Z" fill="#B7D3F3"/>
<path d="M501.982 125.364C501.416 124.998 500.661 125.162 500.295 125.728C499.931 126.294 500.093 127.049 500.659 127.413C501.225 127.779 501.979 127.615 502.346 127.049C502.709 126.483 502.548 125.728 501.982 125.364Z" fill="#B7D3F3"/>
<path d="M497.807 135.73C497.134 135.73 496.587 136.274 496.587 136.947C496.587 137.622 497.134 138.167 497.807 138.167C498.479 138.167 499.026 137.622 499.026 136.947C499.026 136.274 498.479 135.73 497.807 135.73Z" fill="#B7D3F3"/>
<path d="M499.939 147.758C499.461 148.234 499.461 149.006 499.939 149.481C500.415 149.957 501.186 149.957 501.662 149.481C502.138 149.006 502.138 148.234 501.662 147.758C501.186 147.282 500.415 147.282 499.939 147.758Z" fill="#B7D3F3"/>
<path d="M507.593 155.436C507.117 155.911 507.117 156.683 507.593 157.159C508.069 157.634 508.843 157.634 509.318 157.159C509.794 156.683 509.794 155.911 509.318 155.436C508.843 154.96 508.069 154.96 507.593 155.436Z" fill="#B7D3F3"/>
<path d="M518.736 136.947C518.736 136.274 519.282 135.73 519.955 135.73C520.628 135.73 521.175 136.274 521.175 136.947C521.175 137.622 520.628 138.167 519.955 138.167C519.282 138.167 518.736 137.622 518.736 136.947Z" fill="#B7D3F3"/>
<path d="M520.122 136.947H519.788V121.716H520.122V136.947Z" fill="#B7D3F3"/>
<path d="M520.111 137.319L519.493 136.534L527.568 130.194L528.183 130.979L520.111 137.319Z" fill="#B7D3F3"/>
<path d="M394.606 352.224C387.081 365.325 377.617 370.379 377.617 370.379H338.245C338.245 370.379 400.345 342.233 394.606 352.224Z" fill="#233862"/>
<path d="M443.166 482.361C442.742 486.494 448.487 487.56 455.15 487.965C461.814 488.367 459.785 489.713 468.904 491.466C478.023 493.219 481.712 490.757 482.388 489.529C482.986 488.441 478.756 486.682 474.25 484.697C473.684 484.448 473.115 484.193 472.549 483.936C467.477 481.642 464.666 477.041 460.739 472.761C457.021 468.705 453.586 455.818 453.586 455.818L441.197 453.031C441.197 453.031 444.56 464.635 445.717 469.586C446.398 472.499 445.312 475.734 444.355 478.196C443.838 479.536 443.316 480.906 443.166 482.361" fill="#FFB27D"/>
<path d="M455.15 487.965C461.814 488.367 459.785 489.713 468.904 491.466C478.023 493.219 481.712 490.757 482.388 489.529C482.986 488.441 478.756 486.682 474.25 484.697L474.179 484.773C474.179 484.773 467.731 486.885 460.338 484.79C454.311 483.083 448.506 479.407 444.355 478.196C443.838 479.536 443.316 480.906 443.166 482.361C442.742 486.494 448.487 487.56 455.15 487.965" fill="#0F2549"/>
<path d="M424.397 338.806C417.733 334.127 373.639 325.78 351.135 323.365L326.266 301.769C326.266 301.769 305.093 333.134 304.927 357.128C304.85 368.314 310.002 369.425 310.002 369.427C310.002 369.427 389.733 370.021 393.228 370.379C398.948 370.97 406.492 385.225 408.379 398.208C410.266 411.191 443.513 463.995 443.513 463.995C443.513 463.995 450.447 466.219 453.652 466.03C457.1 465.828 458.697 464.671 458.697 464.671C458.697 464.671 439.43 349.366 424.397 338.806" fill="#233862"/>
<path d="M422.543 482.361C422.119 486.494 427.864 487.56 434.528 487.965C441.191 488.367 439.162 489.713 448.282 491.466C457.401 493.219 461.089 490.757 461.762 489.529C462.364 488.441 458.134 486.682 453.627 484.697C453.061 484.448 452.493 484.193 451.927 483.936C446.854 481.642 444.043 477.041 440.117 472.761C436.398 468.705 432.964 455.818 432.964 455.818L420.574 453.031C420.574 453.031 423.937 464.635 425.094 469.586C425.775 472.499 424.689 475.734 423.732 478.196C423.213 479.536 422.693 480.906 422.543 482.361" fill="#FFB27D"/>
<path d="M434.528 487.965C441.191 488.367 439.163 489.713 448.282 491.466C457.401 493.219 461.089 490.757 461.762 489.529C462.364 488.441 458.134 486.682 453.627 484.697L453.556 484.773C453.556 484.773 447.109 486.885 439.715 484.79C433.688 483.083 427.883 479.407 423.732 478.196C423.213 479.536 422.693 480.906 422.543 482.361C422.119 486.494 427.864 487.56 434.528 487.965" fill="#233862"/>
<path d="M403.594 338.806C397.802 334.739 380.384 331.586 361.159 329.247C355.843 328.599 351.477 324.735 350.18 319.538L305.46 301.769C305.46 301.769 284.29 333.134 284.121 357.128C284.044 368.314 289.196 369.425 289.196 369.427C289.196 369.427 368.927 370.021 372.422 370.379C378.142 370.97 385.689 385.225 387.573 398.208C389.46 411.191 422.707 463.995 422.707 463.995C422.707 463.995 429.641 466.219 432.846 466.03C436.297 465.828 437.891 464.671 437.891 464.671C437.891 464.671 418.625 349.366 403.594 338.806" fill="#2B478B"/>
<path d="M343.752 171.463C337.605 168.233 328.256 167.798 326.736 167.593C308.558 165.15 297.618 191.57 296.972 199.576C295.788 214.334 287.984 216.582 276.998 225.823C254.971 244.353 261.431 265.886 273.476 273.888C280.7 278.688 293.439 273.886 293.439 273.886C293.62 274.011 328.275 254.508 345.357 245.1C370.967 241.459 359.412 179.687 343.752 171.463" fill="#482461"/>
<path d="M339.959 236.011C340.041 236.052 331.882 239.764 325.995 237.816C320.455 235.992 315.577 227.65 315.653 227.637C318.06 227.289 320.502 224.915 321.185 210.858L322.249 211.126L340.151 215.652C340.151 215.652 339.443 221.324 339.15 226.688C338.904 231.192 338.956 235.475 339.959 236.011" fill="#FFB27D"/>
<path d="M340.151 215.652C340.151 215.652 340.151 216.82 339.481 222.096C329.358 219.541 324.893 216.185 321.746 212.343L340.151 215.652Z" fill="#ED975D"/>
<path d="M343.971 216.366C343.971 216.366 320.297 220.222 318.125 205.44C315.952 190.657 311.432 181.199 326.454 178.111C341.477 175.026 345.25 180.234 347.175 184.993C349.1 189.749 350.071 214.982 343.971 216.366" fill="#FFB27D"/>
<path d="M343.993 177.493C343.993 177.493 333.244 194.467 323.646 198.487C314.048 202.508 309.334 200.464 309.334 200.464C309.334 200.464 313.701 193.843 314.839 184.954C315.172 182.331 316.881 180.086 319.331 179.104C326.219 176.345 339.541 171.993 343.993 177.493Z" fill="#482461"/>
<path d="M334.551 179.134C334.551 179.134 340.851 182.364 343.446 185.395C345.95 188.316 348.843 196.244 348.636 199.805C348.636 199.805 351.745 182.742 345.27 176.875C338.404 170.653 334.551 179.134 334.551 179.134" fill="#482461"/>
<path d="M358.898 272.124C358.181 320.255 358.701 310.196 353.437 314.763C352.168 315.862 348.606 316.519 343.911 316.828C329.156 317.807 303.22 315.378 302.233 312.649C298.829 303.213 301.232 300.281 298.394 285.832C298.096 284.295 297.73 282.632 297.3 280.822C294.932 270.899 292.63 267.521 301.027 251.582C308.645 237.141 317.603 225.408 318.314 225.832C338.409 237.765 339.098 227.763 339.098 227.763C339.098 227.763 359.25 248.65 358.898 272.124Z" fill="white"/>
<path d="M339.098 227.763C339.098 227.763 359.666 231.25 362.094 240.152C364.522 249.057 378.809 301.408 378.809 301.408C378.809 301.408 368.298 303.298 363.442 298.44C358.586 293.583 346.544 253.376 346.544 253.376L339.098 227.763Z" fill="white"/>
<path d="M343.911 316.828C329.156 317.807 303.22 315.378 302.233 312.649C298.829 303.213 301.232 300.281 298.394 285.832L305.509 265.79C305.509 265.79 304.333 288.11 310.915 293.98C317.488 299.852 337.859 305.314 341.059 310.217C342.601 312.572 343.615 314.933 343.911 316.828" fill="#EBF3FF"/>
<path d="M327.007 307.441C327.007 307.441 341.562 304.2 343.911 305.491C346.259 306.782 352.002 311.489 352.718 313.127C353.437 314.763 347.49 311.883 345.557 311.363C344.302 311.027 341.004 312.176 339.372 312.72C332.503 315.009 328.292 313.83 328.292 313.83L327.007 307.441" fill="#FFB27D"/>
<path d="M318.314 225.832C318.314 225.832 297.713 227.035 290.946 236.474C281.422 249.763 262.527 306.391 273.356 313.942C285.551 322.448 328.858 316.166 328.858 316.166C328.858 316.166 330.299 309.43 328.292 306.17C326.288 302.912 293.705 297.647 292.201 296.143C290.697 294.639 310.997 266.81 310.997 262.297C310.997 257.785 318.314 225.832 318.314 225.832" fill="white"/>
<path d="M344.616 309.545C344.616 309.545 347.665 313.477 348.666 313.948C349.666 314.418 350.312 314.301 350.312 314.301L348.255 310.6L344.616 309.545Z" fill="#FFB27D"/>
<path d="M343.911 305.491L352.778 309.799C352.778 309.799 352.401 310.417 351.31 310.365C350.219 310.316 347.465 309.309 347.465 309.309L343.911 305.491" fill="#FFB27D"/>
<path d="M376.578 315.701H335.393C335.393 313.888 336.864 312.419 338.677 312.419H376.578V315.701Z" fill="#ED7D2B"/>
<path d="M376.458 270.839H440.133L424.859 315.701H360.773L376.458 270.839Z" fill="#ED7D2B"/>
<path d="M441.071 270.836L425.797 315.701H361.711L377.398 270.836H441.071Z" fill="#F99746"/>
<path d="M406.741 292.856C406.347 294.57 404.636 295.96 402.921 295.96C401.209 295.96 400.14 294.57 400.537 292.856C400.93 291.141 402.642 289.751 404.354 289.751C406.068 289.751 407.137 291.141 406.741 292.856" fill="white"/>
<path d="M321.158 325.796H600.198C601.371 325.796 602.323 324.844 602.323 323.671V317.826C602.323 316.653 601.371 315.701 600.198 315.701H321.158C319.985 315.701 319.033 316.653 319.033 317.826V323.671C319.033 324.844 319.985 325.796 321.158 325.796Z" fill="#182D4F"/>
<path d="M607.029 492.059L607.149 492.046C608.579 491.868 609.591 490.591 609.41 489.193L584.544 320.837L575.441 321.097L604.696 490.366C604.885 491.449 605.913 492.196 607.029 492.059" fill="#182D4F"/>
<path d="M311.814 492.059L311.694 492.046C310.264 491.868 309.252 490.591 309.433 489.193L334.299 320.837L343.402 321.097L314.144 490.366C313.958 491.449 312.93 492.196 311.814 492.059" fill="#182D4F"/>
<path d="M369.379 492.059L369.258 492.046C367.831 491.868 366.816 490.591 367 489.193L391.863 320.837L400.969 321.097L371.711 490.366C371.522 491.449 370.494 492.196 369.379 492.059" fill="#182D4F"/>
<path d="M516.078 491.923H565.422C567.796 489.026 566.921 478.338 566.563 474.848C566.486 474.145 566.437 473.735 566.437 473.735C566.437 473.735 549.588 460.254 547.271 470.576C547.2 470.899 547.116 471.216 547.023 471.528C544.108 481.182 531.027 485.572 523.474 486.792C518.563 487.59 516.75 490.142 516.078 491.923" fill="#233862"/>
<path d="M650.718 331.553C648.936 331.553 566.196 347.091 552.511 364.037C545.672 372.502 544.655 470.267 544.655 470.267C544.655 470.267 553.115 480.756 571.383 474.665C571.383 474.665 584.776 407.778 583.789 387.489C583.513 381.88 640.319 386.677 650.718 383.986C661.114 381.295 686.519 358.671 680.919 347.651C675.322 336.629 650.718 331.553 650.718 331.553" fill="#233862"/>
<path d="M552.863 307.614C552.863 307.614 536.175 307.838 532.227 309.531C528.281 311.221 520.272 315.105 522.416 315.701C524.56 316.297 534.784 315.458 536.993 315.794C539.202 316.133 541.926 315.701 543.279 315.701C544.633 315.701 550.944 315.701 550.944 315.701L552.863 307.614Z" fill="#FFB27D"/>
<path d="M533.351 267.551C533.351 267.551 527.661 263.484 522.134 262.694C518.984 262.243 515.919 261.682 514.068 261.028C508.968 259.231 498.766 250.058 499.54 248.981C502.012 245.532 513.923 252.832 516.001 252.047C518.082 251.264 512.006 246.943 514.12 245.425C515.222 244.629 517.803 248.609 519.914 249.008C522.769 249.547 525.003 253.581 525.861 253.792C527.535 254.202 534.86 259.65 534.86 259.65L533.351 267.551Z" fill="#FFB27D"/>
<path d="M642.477 220.055C642.477 220.055 629.773 223.994 617.255 258.471C604.737 292.949 599.982 294.811 595.432 296.165C590.882 297.516 550.944 305.469 550.944 305.469V315.701H612.484C612.484 315.701 635.559 293.747 642.477 278.967C649.395 264.185 642.477 220.055 642.477 220.055Z" fill="#ED7D2B"/>
<path d="M494.271 491.923H543.613C545.986 489.026 545.111 478.338 544.753 474.848C544.679 474.145 544.63 473.735 544.63 473.735C544.63 473.735 527.778 460.254 525.465 470.576C525.394 470.899 525.309 471.216 525.216 471.528C522.298 481.182 509.22 485.572 501.668 486.792C496.757 487.59 494.941 490.142 494.271 491.923" fill="#1B3051"/>
<path d="M626.336 331.553C624.553 331.553 541.814 347.091 528.128 364.037C521.289 372.502 520.272 470.267 520.272 470.267C520.272 470.267 528.732 480.756 547.001 474.665C547.001 474.665 560.394 407.778 559.407 387.489C559.131 381.88 615.937 386.677 626.336 383.986C636.732 381.295 662.137 358.671 656.537 347.651C650.94 336.629 626.336 331.553 626.336 331.553" fill="#2B478B"/>
<path d="M631.515 230.982C637.465 230.489 643.707 228.903 649.1 227.153C655.843 224.965 661.279 221.765 657.776 215.603C654.546 209.922 649.324 197.229 649.677 186.716L637.131 196.83L628.608 203.7C628.608 203.7 628.644 207.748 629.573 214.845C629.746 216.139 629.943 217.536 630.178 219.027C630.369 220.233 629.814 221.439 628.778 222.082C628.712 222.12 628.649 222.161 628.586 222.202C624.351 224.864 626.527 231.392 631.515 230.982" fill="#FFB27D"/>
<path d="M628.608 202.026C628.608 202.026 628.171 203.498 628.92 208.927C636.519 207.688 643.623 201.627 643.623 201.627C639.754 200.563 638.345 196.384 635.466 196.772L628.608 202.026" fill="#ED975D"/>
<path d="M621.581 203.265C621.581 203.265 650.806 208.123 653.551 189.872C656.294 171.618 661.913 159.954 643.368 156.081C624.824 152.208 620.145 158.627 617.747 164.497C615.349 170.366 614.048 201.531 621.581 203.265Z" fill="#FFB27D"/>
<path d="M613.449 156.42C612.194 160.815 615.552 166.168 621.19 167.932C629.56 170.546 627.711 180.814 631.477 180.677C635.242 180.535 636.762 174.772 640.125 179.378C642.996 183.305 637.738 187.96 638.099 190.115C638.72 193.813 644.511 201.378 649.728 200.998C654.948 200.618 664.713 175.814 662.758 168.14C660.805 160.465 652.993 152.372 645.602 151.256C638.209 150.141 627.941 153.335 625.57 153.335C623.2 153.335 614.127 154.046 613.449 156.42Z" fill="#482461"/>
<path d="M681.311 245.387C677.086 228.381 665.41 210.535 657.516 210.551C644.066 210.576 624.725 214.126 616.919 233.391C611.168 247.58 603.498 329.201 612.166 335.005C631.982 348.275 677.917 375.365 686.077 347.739C693.555 322.429 688.641 274.9 681.311 245.387Z" fill="#F99746"/>
<path d="M648.637 228.463C644.801 218.477 632.423 215.026 623.982 221.595C619.415 225.148 613.826 230.208 607.072 237.401C581.968 264.138 576.866 263.974 572.152 263.421C567.435 262.869 527.6 254.412 527.6 254.412C527.6 254.412 525.561 255.917 524.36 258.351C522.758 261.6 523.564 263.813 523.564 263.813C522.003 262.806 537.685 273.618 545.491 277.928C555.797 283.619 571.328 288.958 577.516 290.985C579.269 291.559 581.159 291.529 582.895 290.903C592.077 287.593 622.912 275.532 648.011 254.601C654.626 249.085 652.195 237.721 648.637 228.463" fill="#F99746"/>
<path d="M658.87 210.715L655.826 203.85C655.826 203.85 628.564 206.074 623.982 221.595C623.982 221.595 645.113 211.046 658.87 210.715" fill="white"/>
<path d="M725.058 491.307L725.247 491.304C726.786 491.277 727.973 490.019 727.828 488.569L717.56 385.988L708.6 386.789L723.343 489.921C723.461 490.727 724.196 491.324 725.058 491.307" fill="#8CB4F4"/>
<path d="M672.2 491.307L672.388 491.304C673.928 491.277 675.117 490.019 674.972 488.569L664.702 385.988L655.742 386.789L670.488 489.921C670.603 490.727 671.338 491.324 672.2 491.307" fill="#8CB4F4"/>
<path d="M572.969 491.307L572.781 491.304C571.244 491.277 570.054 490.019 570.199 488.569L580.467 385.988L589.427 386.789L574.684 489.921C574.569 490.727 573.831 491.324 572.969 491.307Z" fill="#73A2E5"/>
<path d="M722.157 371.457L731.902 285.78C733.179 273.434 729.05 261.343 711.235 260.408L679.9 258.499C661.325 257.733 652.939 273.194 650.587 285.096L631.982 379.279L722.157 371.457Z" fill="#8CB4F4"/>
<path d="M716.918 387.489H577.834C575.039 387.489 572.75 385.203 572.75 382.408V376.15C572.75 373.355 575.039 371.068 577.834 371.068H721.998V382.408C721.998 385.203 719.712 387.489 716.918 387.489Z" fill="#73A2E5"/>
<path d="M718.052 387.489H635.928C633.76 387.489 631.982 385.712 631.982 383.543V375.015C631.982 372.843 633.76 371.068 635.928 371.068H721.998V383.543C721.998 385.712 720.223 387.489 718.052 387.489Z" fill="#8CB4F4"/>
</svg>
