<svg width="17" height="18" viewBox="0 0 17 18" fill="none" xmlns="http://www.w3.org/2000/svg">
<path d="M4.26074 9C4.09498 9 3.93601 9.06585 3.8188 9.18306C3.70159 9.30027 3.63574 9.45924 3.63574 9.625V12.75C3.63574 12.9158 3.70159 13.0747 3.8188 13.1919C3.93601 13.3092 4.09498 13.375 4.26074 13.375C4.4265 13.375 4.58547 13.3092 4.70268 13.1919C4.81989 13.0747 4.88574 12.9158 4.88574 12.75V12.125H5.19824C5.61264 12.125 6.01007 11.9604 6.3031 11.6674C6.59612 11.3743 6.76074 10.9769 6.76074 10.5625C6.76074 10.1481 6.59612 9.75067 6.3031 9.45765C6.01007 9.16462 5.61264 9 5.19824 9H4.26074ZM5.19824 10.875H4.88574V10.25H5.19824C5.28112 10.25 5.36061 10.2829 5.41921 10.3415C5.47782 10.4001 5.51074 10.4796 5.51074 10.5625C5.51074 10.6454 5.47782 10.7249 5.41921 10.7835C5.36061 10.8421 5.28112 10.875 5.19824 10.875ZM7.38574 9.625C7.38574 9.45924 7.45159 9.30027 7.5688 9.18306C7.68601 9.06585 7.84498 9 8.01074 9H8.32324C8.9034 9 9.4598 9.23047 9.87004 9.6407C10.2803 10.0509 10.5107 10.6073 10.5107 11.1875C10.5107 11.7677 10.2803 12.3241 9.87004 12.7343C9.4598 13.1445 8.9034 13.375 8.32324 13.375H8.01074C7.84498 13.375 7.68601 13.3092 7.5688 13.1919C7.45159 13.0747 7.38574 12.9158 7.38574 12.75V9.625ZM8.63574 12.0719C8.81886 12.0075 8.97747 11.8878 9.08967 11.7294C9.20188 11.571 9.26214 11.3816 9.26214 11.1875C9.26214 10.9934 9.20188 10.804 9.08967 10.6456C8.97747 10.4872 8.81886 10.3675 8.63574 10.3031V12.0719ZM11.1357 12.75V9.625C11.1357 9.45924 11.2016 9.30027 11.3188 9.18306C11.436 9.06585 11.595 9 11.7607 9H13.6357C13.8015 9 13.9605 9.06585 14.0777 9.18306C14.1949 9.30027 14.2607 9.45924 14.2607 9.625C14.2607 9.79076 14.1949 9.94973 14.0777 10.0669C13.9605 10.1842 13.8015 10.25 13.6357 10.25H12.3857V10.875H13.6357C13.8015 10.875 13.9605 10.9408 14.0777 11.0581C14.1949 11.1753 14.2607 11.3342 14.2607 11.5C14.2607 11.6658 14.1949 11.8247 14.0777 11.9419C13.9605 12.0592 13.8015 12.125 13.6357 12.125H12.3857V12.75C12.3857 12.9158 12.3199 13.0747 12.2027 13.1919C12.0855 13.3092 11.9265 13.375 11.7607 13.375C11.595 13.375 11.436 13.3092 11.3188 13.1919C11.2016 13.0747 11.1357 12.9158 11.1357 12.75ZM2.38574 2.125V7.125H1.76074C1.42922 7.125 1.11128 7.2567 0.876859 7.49112C0.642438 7.72554 0.510742 8.04348 0.510742 8.375V14C0.510742 14.3315 0.642438 14.6495 0.876859 14.8839C1.11128 15.1183 1.42922 15.25 1.76074 15.25H2.38574V15.875C2.38574 16.3723 2.58329 16.8492 2.93492 17.2008C3.28655 17.5525 3.76346 17.75 4.26074 17.75H13.0107C13.508 17.75 13.9849 17.5525 14.3366 17.2008C14.6882 16.8492 14.8857 16.3723 14.8857 15.875V15.25H15.5107C15.8423 15.25 16.1602 15.1183 16.3946 14.8839C16.629 14.6495 16.7607 14.3315 16.7607 14V8.375C16.7607 8.04348 16.629 7.72554 16.3946 7.49112C16.1602 7.2567 15.8423 7.125 15.5107 7.125H14.8857V5.1425C14.8855 4.64548 14.6879 4.1689 14.3364 3.8175L11.3189 0.79875C10.9672 0.447324 10.4904 0.24994 9.99324 0.25H4.26074C3.76346 0.25 3.28655 0.447544 2.93492 0.799175C2.58329 1.15081 2.38574 1.62772 2.38574 2.125ZM4.26074 1.5H8.63574V4.625C8.63574 5.12228 8.83329 5.59919 9.18492 5.95083C9.53655 6.30246 10.0135 6.5 10.5107 6.5H13.6357V7.125H3.63574V2.125C3.63574 1.95924 3.70159 1.80027 3.8188 1.68306C3.93601 1.56585 4.09498 1.5 4.26074 1.5ZM3.63574 15.875V15.25H13.6357V15.875C13.6357 16.0408 13.5699 16.1997 13.4527 16.3169C13.3355 16.4342 13.1765 16.5 13.0107 16.5H4.26074C4.09498 16.5 3.93601 16.4342 3.8188 16.3169C3.70159 16.1997 3.63574 16.0408 3.63574 15.875ZM13.6357 5.1425V5.25H10.5107C10.345 5.25 10.186 5.18415 10.0688 5.06694C9.95159 4.94973 9.88574 4.79076 9.88574 4.625V1.5H9.99324C10.159 1.50004 10.3179 1.56591 10.4351 1.68313L13.4526 4.70063C13.5698 4.81781 13.6357 4.97675 13.6357 5.1425ZM1.76074 8.375H15.5107V14H1.76074V8.375Z" fill="#666666"/>
</svg>
